solid base_plate
facet normal 0.000000 0.000000 -1.000000
  outer loop
    vertex -125.000000 -200.000000 -10.000000
    vertex 125.000000 200.000000 -10.000000
    vertex 125.000000 -200.000000 -10.000000
  endloop
endfacet
facet normal 0.000000 0.000000 -1.000000
  outer loop
    vertex -125.000000 -200.000000 -10.000000
    vertex -125.000000 200.000000 -10.000000
    vertex 125.000000 200.000000 -10.000000
  endloop
endfacet
facet normal 0.000000 0.000000 1.000000
  outer loop
    vertex -125.000000 -200.000000 10.000000
    vertex 125.000000 -200.000000 10.000000
    vertex 125.000000 200.000000 10.000000
  endloop
endfacet
facet normal 0.000000 0.000000 1.000000
  outer loop
    vertex -125.000000 -200.000000 10.000000
    vertex 125.000000 200.000000 10.000000
    vertex -125.000000 200.000000 10.000000
  endloop
endfacet
facet normal 0.000000 -1.000000 0.000000
  outer loop
    vertex -125.000000 -200.000000 -10.000000
    vertex 125.000000 -200.000000 -10.000000
    vertex 125.000000 -200.000000 10.000000
  endloop
endfacet
facet normal 0.000000 -1.000000 0.000000
  outer loop
    vertex -125.000000 -200.000000 -10.000000
    vertex 125.000000 -200.000000 10.000000
    vertex -125.000000 -200.000000 10.000000
  endloop
endfacet
facet normal 1.000000 0.000000 0.000000
  outer loop
    vertex 125.000000 -200.000000 -10.000000
    vertex 125.000000 200.000000 -10.000000
    vertex 125.000000 200.000000 10.000000
  endloop
endfacet
facet normal 1.000000 0.000000 0.000000
  outer loop
    vertex 125.000000 -200.000000 -10.000000
    vertex 125.000000 200.000000 10.000000
    vertex 125.000000 -200.000000 10.000000
  endloop
endfacet
facet normal 0.000000 1.000000 0.000000
  outer loop
    vertex 125.000000 200.000000 -10.000000
    vertex -125.000000 200.000000 -10.000000
    vertex -125.000000 200.000000 10.000000
  endloop
endfacet
facet normal 0.000000 1.000000 -0.000000
  outer loop
    vertex 125.000000 200.000000 -10.000000
    vertex -125.000000 200.000000 10.000000
    vertex 125.000000 200.000000 10.000000
  endloop
endfacet
facet normal -1.000000 0.000000 0.000000
  outer loop
    vertex -125.000000 200.000000 -10.000000
    vertex -125.000000 -200.000000 -10.000000
    vertex -125.000000 -200.000000 10.000000
  endloop
endfacet
facet normal -1.000000 0.000000 0.000000
  outer loop
    vertex -125.000000 200.000000 -10.000000
    vertex -125.000000 -200.000000 10.000000
    vertex -125.000000 200.000000 10.000000
  endloop
endfacet
endsolid base_plate
